<svg width="256" height="342" viewBox="0 0 256 342" fill="none" xmlns="http://www.w3.org/2000/svg">
<path d="M122.394 0.105436C54.4121 2.98221 0 59.25 0 127.988C0 196.726 54.4121 252.994 122.394 255.87C125.37 255.992 129.31 253.818 129.31 249.455C129.31 245.091 125.637 242.527 122.819 242.405C60.4619 239.76 13.4439 191.045 13.4439 127.976C13.4439 64.906 60.4619 16.216 122.819 13.5708C125.637 13.4489 129.014 11.6365 129.014 6.54563C129.014 2.18208 126.115 -0.0519662 122.394 0.105436Z" fill="black"/>
<path d="M167.368 37.2474C163.845 16.4517 147.369 5.99296 142.128 0.28816C141.448 -0.455414 140.261 0.373488 140.718 1.26334C143.908 7.46791 156.295 23.3511 156.295 42.5865C156.295 73.2681 148.049 98.1882 148.037 124.859C148.037 151.518 156.295 182.732 156.295 213.413C156.295 232.637 143.908 248.532 140.718 254.737C140.261 255.627 141.448 256.455 142.128 255.712C147.369 250.007 163.845 239.548 167.368 218.753C171.646 193.435 161.431 152.985 161.431 126.326C161.431 99.6549 171.658 62.5899 167.368 37.2718V37.2474Z" fill="black"/>
<path d="M199.744 46.5527C196.368 26.2397 183.304 16.0405 178.295 10.4663C177.642 9.73606 176.505 10.5393 176.952 11.4156C180.001 17.4645 190.538 32.9823 190.538 51.7618C190.538 81.7141 186.247 99.8768 186.247 125.922C186.247 151.956 190.538 174.285 190.538 204.237C190.538 223.005 180.001 238.535 176.952 244.584C176.517 245.46 177.654 246.263 178.295 245.533C183.317 239.959 196.38 229.76 199.744 209.447C203.846 184.728 199.45 151.968 199.45 125.922C199.45 99.889 203.833 71.2837 199.744 46.5527Z" fill="black"/>
<path d="M226.35 62.1055C222.897 44.551 210.999 31.245 205.874 26.4277C205.206 25.7967 204.043 26.4908 204.5 27.2481C207.62 32.4756 216.975 41.8136 219.847 68.0189C222.72 94.2243 220.538 104.204 220.538 126.712C220.538 149.21 222.812 166.182 219.847 190.89C216.883 215.598 207.62 223.524 204.5 228.751C204.055 229.509 205.218 230.203 205.874 229.572C211.011 224.754 222.909 211.448 226.35 193.894C230.546 172.532 230.489 154.952 230.489 126.712C230.489 98.4725 230.534 83.478 226.35 62.1055Z" fill="black"/>
<path d="M252.015 95.7827C250.055 89.4548 245.516 86.4521 246.431 91.5897C247.346 96.7273 248.506 113.207 248.651 127.513C248.796 141.818 247.88 157.678 247.156 162.909C246.432 168.14 250.055 165.818 252.003 159.291C253.951 152.764 256 138.483 256 127.513C256 116.542 254.615 105.937 252.015 95.7827Z" fill="black"/>
<path d="M66.0311 323.373C66.0311 316.37 71.3915 310.978 78.0746 310.978C82.1819 310.978 85.7322 313.008 88.0295 316.16L93.181 312.448C89.7003 307.756 84.7576 304.675 78.0746 304.675C67.2842 304.675 59 313.008 59 323.373C59 333.667 67.2842 342 78.0746 342C84.7576 342 89.7003 338.919 93.181 334.297L88.0295 330.515C85.7322 333.737 82.1819 335.768 78.0746 335.768C71.3915 335.768 66.0311 330.235 66.0311 323.373Z" fill="black"/>
<path d="M134.255 323.303C134.255 313.008 125.762 304.675 115.181 304.675C104.599 304.675 96.1062 313.008 96.1062 323.303C96.1062 333.597 104.599 342 115.181 342C125.762 342 134.255 333.597 134.255 323.303ZM127.224 323.303C127.224 330.235 121.864 335.697 115.181 335.697C108.498 335.697 103.137 330.235 103.137 323.303C103.137 316.44 108.498 310.978 115.181 310.978C121.864 310.978 127.224 316.44 127.224 323.303Z" fill="black"/>
<path d="M156.583 311.748V305.165H154.146C150.248 305.165 147.394 306.986 145.653 309.857V305.445H138.692V341.16H145.723V320.852C145.723 315.319 149.064 311.748 153.659 311.748H156.583Z" fill="black"/>
<path d="M176.375 341.16H183.128V334.927H178.463C176.305 334.927 174.983 333.877 174.983 331.916V311.678H183.128V305.445H174.983V294.941L167.952 297.285V305.445H161.199V311.678H167.952V333.457C167.952 337.938 170.945 341.16 176.375 341.16Z" fill="black"/>
<path d="M192.002 300.473C194.299 300.473 196.109 298.583 196.109 296.202C196.109 293.891 194.299 292 192.002 292C189.635 292 187.756 293.891 187.756 296.202C187.756 298.583 189.635 300.473 192.002 300.473ZM195.483 305.445H188.452V341.16H195.483V305.445Z" fill="black"/>
</svg>
